<svg width="160" height="160" viewBox="0 0 160 160" fill="none" xmlns="http://www.w3.org/2000/svg">
<g filter="url(#filter0_d_5_98)">
<ellipse cx="42" cy="45" rx="42" ry="45" transform="matrix(-1 0 0 1 144 44)" fill="#343A3D"/>
<circle cx="72" cy="68" r="56" fill="#343A3D"/>
<ellipse cx="39.5" cy="42.5385" rx="39.5" ry="42.5385" transform="matrix(-1 0 0 1 143 48.8511)" fill="white"/>
<path d="M68 91.3895C68 112.958 84.1679 129.928 103.5 129.928C122.832 129.928 139 112.958 139 91.3895C139 69.821 122.832 52.8511 103.5 52.8511C84.1679 52.8511 68 69.821 68 91.3895Z" fill="white" stroke="#343A3D" stroke-width="8"/>
<path d="M128.574 114.661L111.582 127.783L128.574 140.904L128.574 114.661Z" fill="white" stroke="#343A3D" stroke-width="4"/>
<path d="M93.5397 111.064L126.634 136.62L126.634 85.5091L93.5397 111.064Z" fill="white"/>
<path d="M39.9718 89.0312L71.0229 111.296L39.9718 133.56L39.9718 89.0312Z" fill="white" stroke="#343A3D" stroke-width="8"/>
<circle cx="72.0282" cy="68.0282" r="50.0282" fill="white"/>
<circle cx="72.0282" cy="68.0282" r="46.0282" fill="white" stroke="#343A3D" stroke-width="8"/>
<path d="M71 109.5L40.25 131.584L40.25 87.4163L71 109.5Z" fill="white"/>
<rect x="45" y="72" width="55" height="10" rx="5" fill="#343A3D"/>
<rect x="45" y="55" width="55" height="10" rx="5" fill="#343A3D"/>
</g>
<defs>
<filter id="filter0_d_5_98" x="15" y="12" width="129" height="134.975" filterUnits="userSpaceOnUse" color-interpolation-filters="sRGB">
<feFlood flood-opacity="0" result="BackgroundImageFix"/>
<feColorMatrix in="SourceAlpha" type="matrix" values="0 0 0 0 0 0 0 0 0 0 0 0 0 0 0 0 0 0 127 0" result="hardAlpha"/>
<feOffset dx="-1" dy="2"/>
<feComposite in2="hardAlpha" operator="out"/>
<feColorMatrix type="matrix" values="0 0 0 0 1 0 0 0 0 1 0 0 0 0 1 0 0 0 1 0"/>
<feBlend mode="normal" in2="BackgroundImageFix" result="effect1_dropShadow_5_98"/>
<feBlend mode="normal" in="SourceGraphic" in2="effect1_dropShadow_5_98" result="shape"/>
</filter>
</defs>
</svg>
