<svg width="709" height="195" viewBox="0 0 709 195" fill="none" xmlns="http://www.w3.org/2000/svg">
<g clip-path="url(#clip0_4_82)">
<ellipse cx="42" cy="45" rx="42" ry="45" transform="matrix(-1 0 0 1 152 65)" fill="#343A3D"/>
<circle cx="80" cy="89" r="56" fill="#343A3D"/>
<ellipse cx="39.5" cy="42.5385" rx="39.5" ry="42.5385" transform="matrix(-1 0 0 1 151 69.8511)" fill="white"/>
<path d="M76 112.39C76 133.958 92.1679 150.928 111.5 150.928C130.832 150.928 147 133.958 147 112.39C147 90.821 130.832 73.8511 111.5 73.8511C92.1679 73.8511 76 90.821 76 112.39Z" fill="white" stroke="#343A3D" stroke-width="8"/>
<path d="M136.574 135.661L119.582 148.783L136.574 161.904L136.574 135.661Z" fill="white" stroke="#343A3D" stroke-width="4"/>
<path d="M101.54 132.064L134.634 157.62L134.634 106.509L101.54 132.064Z" fill="white"/>
<path d="M47.9718 110.031L79.0229 132.296L47.9718 154.56L47.9718 110.031Z" fill="white" stroke="#343A3D" stroke-width="8"/>
<circle cx="80.0282" cy="89.0282" r="50.0282" fill="white"/>
<circle cx="80.0282" cy="89.0282" r="46.0282" fill="white" stroke="#343A3D" stroke-width="8"/>
<path d="M79.3173 128.151L51.1181 148.37L51.1181 107.931L79.3173 128.151Z" fill="white"/>
<rect x="53" y="93" width="55" height="10" rx="5" fill="#343A3D"/>
<rect x="53" y="76" width="55" height="10" rx="5" fill="#343A3D"/>
<path d="M266.47 71.28L247.38 132.92H239.675L222.885 82.895L205.98 132.92H198.275L179.07 71.28H188.04L202.3 121.305L219.205 71.28H226.565L243.7 121.305L257.73 71.28H266.47ZM283.706 50.58C282.172 50.58 280.831 50.0433 279.681 48.97C278.531 47.82 277.956 46.4783 277.956 44.945C277.956 43.335 278.531 41.955 279.681 40.805C280.831 39.655 282.172 39.08 283.706 39.08C285.316 39.08 286.657 39.655 287.731 40.805C288.881 41.955 289.456 43.335 289.456 44.945C289.456 46.4783 288.881 47.82 287.731 48.97C286.657 50.0433 285.316 50.58 283.706 50.58ZM279.336 71.28H287.961V132H279.336V71.28ZM325.822 134.185C321.145 134.185 317.12 133.687 313.747 132.69C310.373 131.693 307.23 130.16 304.317 128.09L307.307 121.65C312.06 125.407 318.232 127.285 325.822 127.285C329.962 127.285 333.297 126.288 335.827 124.295C338.433 122.302 339.737 119.503 339.737 115.9C339.737 113.83 339.085 112.105 337.782 110.725C336.555 109.345 335.022 108.195 333.182 107.275C331.342 106.355 328.773 105.282 325.477 104.055C321.49 102.598 318.232 101.257 315.702 100.03C313.248 98.7267 311.14 96.9633 309.377 94.74C307.613 92.44 306.732 89.5267 306.732 86C306.732 80.5567 308.61 76.3783 312.367 73.465C316.2 70.5517 321.107 69.095 327.087 69.095C334.447 69.095 340.887 71.0883 346.407 75.075L343.532 81.4C338.625 77.72 333.182 75.88 327.202 75.88C323.598 75.88 320.685 76.685 318.462 78.295C316.238 79.905 315.127 82.32 315.127 85.54C315.127 87.61 315.74 89.3733 316.967 90.83C318.27 92.21 319.842 93.36 321.682 94.28C323.522 95.1233 326.09 96.12 329.387 97.27C333.527 98.8033 336.785 100.222 339.162 101.525C341.615 102.752 343.723 104.515 345.487 106.815C347.25 109.115 348.132 112.067 348.132 115.67C348.132 121.343 346.062 125.867 341.922 129.24C337.858 132.537 332.492 134.185 325.822 134.185ZM409.489 123.03C403.202 130.467 395.612 134.185 386.719 134.185C380.509 134.185 375.257 132.728 370.964 129.815C366.67 126.902 363.45 122.992 361.304 118.085C359.157 113.102 358.084 107.658 358.084 101.755C358.084 95.6983 359.157 90.2167 361.304 85.31C363.45 80.3267 366.67 76.3783 370.964 73.465C375.257 70.5517 380.509 69.095 386.719 69.095C390.935 69.095 394.769 69.9767 398.219 71.74C401.669 73.4267 404.39 75.9567 406.384 79.33C408.377 82.6267 409.374 86.5367 409.374 91.06C409.374 92.9767 409.144 95.085 408.684 97.385H367.054C366.9 99.225 366.824 100.605 366.824 101.525C366.824 109.268 368.549 115.517 371.999 120.27C375.449 124.947 380.394 127.285 386.834 127.285C390.744 127.285 394.232 126.442 397.299 124.755C400.365 122.992 403.24 120.615 405.924 117.625L409.489 123.03ZM386.604 75.65C381.85 75.65 377.902 77.03 374.759 79.79C371.692 82.4733 369.507 86.1533 368.204 90.83H400.749V90.025C400.749 85.425 399.33 81.8983 396.494 79.445C393.734 76.915 390.437 75.65 386.604 75.65ZM455.477 77.145C451.874 77.145 448.385 77.835 445.012 79.215C441.639 80.595 437.92 83.1633 433.857 86.92V132H425.232V71.28H432.017L433.627 79.56C437.384 75.7267 440.987 73.0433 444.437 71.51C447.964 69.9 451.644 69.095 455.477 69.095V77.145ZM509.142 128.205C506.842 129.815 504.235 131.003 501.322 131.77C498.408 132.537 495.533 132.92 492.697 132.92C484.953 132.92 479.203 131.157 475.447 127.63C471.69 124.027 469.812 118.89 469.812 112.22V80.25H460.037V72.775L471.882 68.29L476.827 51.385H487.407V67.6H505.807V80.25H487.407V108.195C487.407 112.488 488.058 115.555 489.362 117.395C490.742 119.235 492.85 120.155 495.687 120.155C499.137 120.155 502.663 119.158 506.267 117.165L509.142 128.205ZM579.03 131.425C574.66 132.422 570.673 132.92 567.07 132.92C559.94 132.92 555.378 130.467 553.385 125.56C550.088 128.013 546.792 129.892 543.495 131.195C540.275 132.422 536.825 133.035 533.145 133.035C529.772 133.035 526.743 132.345 524.06 130.965C521.377 129.585 519.268 127.707 517.735 125.33C516.278 122.877 515.55 120.193 515.55 117.28C515.55 112.68 516.738 109 519.115 106.24C521.492 103.403 524.75 101.142 528.89 99.455C533.03 97.6917 539.163 95.66 547.29 93.36L552.12 91.98V90.485C552.12 82.895 548.823 79.1 542.23 79.1C538.933 79.1 535.522 79.8283 531.995 81.285C528.468 82.665 524.443 85.0417 519.92 88.415L516.01 76.455C526.59 69.555 537.17 66.105 547.75 66.105C554.88 66.105 560.285 68.06 563.965 71.97C567.722 75.8033 569.6 82.32 569.6 91.52V115.44C569.6 117.127 569.907 118.353 570.52 119.12C571.21 119.81 572.322 120.155 573.855 120.155C575.158 120.155 576.653 119.925 578.34 119.465L579.03 131.425ZM533.145 115.095C533.145 118.622 535.1 120.385 539.01 120.385C541.003 120.385 543.035 119.963 545.105 119.12C547.175 118.2 549.513 116.897 552.12 115.21V101.985L549.13 103.02C543.073 105.09 538.895 107.007 536.595 108.77C534.295 110.457 533.145 112.565 533.145 115.095ZM588.298 40H605.893V132H588.298V40ZM665.268 132L641.578 98.535V132H623.983V40H641.578V95.315L662.278 67.6H680.333L657.793 96.925L684.588 132H665.268Z" fill="#343A3D"/>
</g>
<defs>
<clipPath id="clip0_4_82">
<rect width="709" height="195" fill="white"/>
</clipPath>
</defs>
</svg>
